<mxfile host="app.diagrams.net" modified="2024-03-20T08:36:16.116Z" agent="Mozilla/5.0 (Macintosh; Intel Mac OS X 10_15_7) AppleWebKit/537.36 (KHTML, like Gecko) Chrome/122.0.0.0 Safari/537.36" version="24.0.2" etag="ZnlXvZLPlW0hFzq0d8n2" type="github">
  <diagram name="Page-1" id="zKAj3Tz4gd_kur2ShOwU">
    <mxGraphModel>
      <root>
        <mxCell id="0" />
        <mxCell id="1" parent="0" />
      </root>
    </mxGraphModel>
  </diagram>
</mxfile>
